<svg width="32" height="32" viewBox="0 0 32 32" fill="none" xmlns="http://www.w3.org/2000/svg">
  <defs>
    <linearGradient id="logoGradient" x1="0%" y1="0%" x2="100%" y2="100%">
      <stop offset="0%" style="stop-color:#8B5CF6;stop-opacity:1" />
      <stop offset="100%" style="stop-color:#EC4899;stop-opacity:1" />
    </linearGradient>
  </defs>
  <!-- Background circle -->
  <circle cx="16" cy="16" r="16" fill="url(#logoGradient)"/>
  <!-- Stylized "S" for StyleHub -->
  <path d="M12 10C12 8.89543 12.8954 8 14 8H18C20.2091 8 22 9.79086 22 12C22 13.1046 21.1046 14 20 14H16C14.8954 14 14 14.8954 14 16C14 17.1046 14.8954 18 16 18H18C19.1046 18 20 18.8954 20 20C20 22.2091 18.2091 24 16 24H14C11.7909 24 10 22.2091 10 20" 
        stroke="white" 
        stroke-width="2.5" 
        stroke-linecap="round" 
        stroke-linejoin="round" 
        fill="none"/>
</svg>
