<svg width="16" height="16" viewBox="0 0 16 16" fill="none" xmlns="http://www.w3.org/2000/svg">
  <defs>
    <linearGradient id="iconGradient" x1="0%" y1="0%" x2="100%" y2="100%">
      <stop offset="0%" style="stop-color:#8B5CF6;stop-opacity:1" />
      <stop offset="100%" style="stop-color:#EC4899;stop-opacity:1" />
    </linearGradient>
  </defs>
  <rect width="16" height="16" rx="3" fill="url(#iconGradient)"/>
  <path d="M6 5C6 4.44772 6.44772 4 7 4H9C10.1046 4 11 4.89543 11 6C11 6.55228 10.5523 7 10 7H8C7.44772 7 7 7.44772 7 8C7 8.55228 7.44772 9 8 9H9C9.55228 9 10 9.44772 10 10C10 11.1046 9.10457 12 8 12H7C5.89543 12 5 11.1046 5 10" 
        stroke="white" 
        stroke-width="1.2" 
        stroke-linecap="round" 
        stroke-linejoin="round" 
        fill="none"/>
</svg>
